<?xml version="1.0" encoding="utf-8"?>
<!-- Generator: Adobe Illustrator 22.0.1, SVG Export Plug-In . SVG Version: 6.00 Build 0)  -->
<svg version="1.1" id="Слой_1" xmlns="http://www.w3.org/2000/svg" xmlns:xlink="http://www.w3.org/1999/xlink" x="0px" y="0px"
	 viewBox="0 0 139.4 32.8" style="enable-background:new 0 0 139.4 32.8;" xml:space="preserve">
<style type="text/css">
	.st0{fill:#232323;}
	.st1{fill:#F2D249;}
	.st2{fill:#FFEE50;}
	.st3{fill:#EB882D;}
	.st4{fill:#FFFFFF;}
</style>
<g>
	<g>
		<polygon class="st0" points="22.9,29.4 19,31 18.4,29.4 18.6,29.3 22.2,27.8 		"/>
		<rect x="19.8" y="30.2" transform="matrix(0.9246 -0.3809 0.3809 0.9246 -10.1713 10.4274)" class="st0" width="3" height="1.4"/>
		<g>
			<polygon class="st1" points="21,28.4 18.4,12.9 10.2,16.3 19.8,28.9 			"/>
			<polygon class="st2" points="22.6,11 21.8,28.2 21,28.4 18.4,12.9 			"/>
			<polygon class="st3" points="19,29.3 5.7,18.4 10.1,16.6 19.8,28.9 			"/>
		</g>
		<g>
			<path class="st0" d="M21.8,28.2L19,29.3L5.7,18.4c0,0-1.8-4.3-0.3-8.1C6.2,8.2,8,6.6,10.5,5.5c2.6-1.1,5-1.1,7.1-0.2
				c3.6,1.6,5.2,5.6,5.2,5.6l0,0L21.8,28.2z M19,29l2.5-1l1-17c-0.1-0.3-1.7-4-5.1-5.4c-2.1-0.9-4.4-0.8-6.9,0.2
				c-2.5,1-4.1,2.6-5,4.6c-1.4,3.6,0.1,7.6,0.3,7.9L19,29z"/>
			
				<rect x="14.9" y="14.6" transform="matrix(0.7879 -0.6158 0.6158 0.7879 -10.7233 14.0104)" class="st0" width="0.2" height="15.9"/>
			
				<rect x="19.6" y="12.7" transform="matrix(0.9889 -0.1484 0.1484 0.9889 -2.8413 3.149)" class="st0" width="0.2" height="15.8"/>
			<rect x="5" y="14.5" transform="matrix(0.9155 -0.4024 0.4024 0.9155 -4.6979 6.9691)" class="st0" width="18.4" height="0.2"/>
			<path class="st0" d="M10,16.4c0,0-1.2-1.9-1.3-4.5C8.6,9.4,9.3,8.1,9.3,8.1l0.2,0.1c0,0-0.7,1.3-0.6,3.7c0.1,2.5,1.2,4.3,1.3,4.3
				L10,16.4z"/>
			<rect x="4.1" y="17.7" transform="matrix(0.9246 -0.3809 0.3809 0.9246 -6.8193 3.5015)" class="st0" width="2.7" height="2.5"/>
			<rect x="22" y="9.7" transform="matrix(0.9246 -0.3809 0.3809 0.9246 -2.4294 9.7124)" class="st0" width="2.7" height="2.5"/>
			<rect x="9.2" y="4.4" transform="matrix(0.9246 -0.3809 0.3809 0.9246 -1.3737 4.4893)" class="st0" width="2.9" height="2.6"/>
			<rect x="18.7" y="0.9" transform="matrix(0.9246 -0.3809 0.3809 0.9246 0.8327 7.5411)" class="st0" width="1.5" height="1.5"/>
			<rect x="0.6" y="8.9" transform="matrix(0.9246 -0.3809 0.3809 0.9246 -3.6022 1.2938)" class="st0" width="1.7" height="1.7"/>
			<rect x="2.1" y="7.7" transform="matrix(0.9123 -0.4096 0.4096 0.9123 -2.7195 3.0377)" class="st0" width="7.3" height="0.2"/>
			<rect x="11.4" y="3.5" transform="matrix(0.9165 -0.4 0.4 0.9165 -0.1717 6.4106)" class="st0" width="7.8" height="0.2"/>
			<path class="st0" d="M18.6,12.8c0,0-0.5-2.2-2.2-4.1c-1.7-1.9-3.1-2.3-3.1-2.3l-0.1,0.2c0,0,1.4,0.4,3,2.2c1.7,1.8,2.2,4,2.2,4
				L18.6,12.8z"/>
		</g>
	</g>
	<g>
		<g>
			<path class="st3" d="M32.3,9.5h4.7c1.1,0,2,0.3,2.6,0.9c0.5,0.5,0.7,1,0.7,1.7c0,1.1-0.6,1.8-1.3,2.2c1.2,0.4,1.9,1.1,1.9,2.5
				c0,1.8-1.5,2.8-3.8,2.8h-4.8V9.5z M36.5,13.5c1,0,1.6-0.3,1.6-1.1c0-0.7-0.5-1-1.4-1h-2.2v2.1H36.5z M37,17.6
				c1,0,1.6-0.3,1.6-1.1c0-0.7-0.5-1.1-1.6-1.1h-2.6v2.2H37z"/>
			<path class="st3" d="M41.9,17.3c0-1.7,1.3-2.4,3.1-2.4c0.8,0,1.3,0.1,1.9,0.3V15c0-0.9-0.6-1.4-1.6-1.4c-0.8,0-1.4,0.2-2.1,0.4
				l-0.5-1.7c0.8-0.4,1.7-0.6,3-0.6c1.2,0,2,0.3,2.6,0.9c0.6,0.6,0.8,1.4,0.8,2.5v4.5h-2.1v-0.8c-0.5,0.6-1.3,1-2.3,1
				C43.1,19.7,41.9,18.8,41.9,17.3z M46.9,16.8v-0.4c-0.4-0.2-0.9-0.3-1.4-0.3c-0.9,0-1.5,0.4-1.5,1.1c0,0.6,0.5,0.9,1.2,0.9
				C46.2,18.2,46.9,17.6,46.9,16.8z"/>
			<path class="st3" d="M62.3,19.5H50.9v-7.7h2.2v5.8h2.4v-5.8h2.2v5.8h2.4v-5.8h2.2V19.5z"/>
			<path class="st3" d="M75.5,19.5h-2.2v-5.8h-2.6v5.8h-2.2v-7.7h7V19.5z"/>
			<path class="st3" d="M77.5,11.8h2.2v1.1c0.5-0.7,1.3-1.2,2.4-1.2c1.8,0,3.5,1.4,3.5,4c0,2.6-1.7,4-3.5,4c-1.2,0-1.9-0.5-2.4-1.1
				v3.3h-2.2V11.8z M83.4,15.7c0-1.3-0.9-2.1-1.9-2.1s-1.9,0.8-1.9,2.1c0,1.3,0.8,2.1,1.9,2.1S83.4,17,83.4,15.7z"/>
			<path class="st3" d="M86.7,17.3c0-1.7,1.3-2.4,3.1-2.4c0.8,0,1.3,0.1,1.9,0.3V15c0-0.9-0.6-1.4-1.6-1.4c-0.8,0-1.4,0.2-2.1,0.4
				l-0.5-1.7c0.8-0.4,1.7-0.6,3-0.6c1.2,0,2,0.3,2.6,0.9c0.6,0.6,0.8,1.4,0.8,2.5v4.5h-2.1v-0.8c-0.5,0.6-1.3,1-2.3,1
				C87.9,19.7,86.7,18.8,86.7,17.3z M91.7,16.8v-0.4c-0.4-0.2-0.9-0.3-1.4-0.3c-0.9,0-1.5,0.4-1.5,1.1c0,0.6,0.5,0.9,1.2,0.9
				C91,18.2,91.7,17.6,91.7,16.8z"/>
			<path class="st3" d="M95.2,12.9c0.8-0.7,1.9-1.2,3.2-1.2c1.7,0,2.9,0.9,2.9,2.1c0,0.9-0.5,1.4-1.2,1.7c0.8,0.3,1.4,0.8,1.4,1.8
				c0,1.3-1.3,2.3-3.1,2.3c-1.5,0-2.6-0.4-3.5-1.2l1-1.4c0.6,0.5,1.5,0.9,2.3,0.9c0.7,0,1.1-0.4,1.1-0.8c0-0.4-0.4-0.8-1.3-0.8h-0.9
				V15h0.9c0.7,0,1.1-0.4,1.1-0.8c0-0.4-0.4-0.7-1-0.7c-0.8,0-1.5,0.3-2.1,0.8L95.2,12.9z"/>
			<path class="st3" d="M104.3,19.5l-0.2,1.8h-1.8v-3.7h0.8c0.6-1.4,0.7-3.3,0.7-5.2v-0.7h6.3v5.8h1l-0.3,3.7h-1.8v-1.8H104.3z
				 M108,17.7v-4h-2v0.2c0,1.3-0.1,2.7-0.6,3.8H108z"/>
			<path class="st3" d="M119.4,19.5h-2.2v-2.9h-2.7v2.9h-2.2v-7.7h2.2v3h2.7v-3h2.2V19.5z"/>
			<path class="st3" d="M128.5,19.5h-2.1V15l-3,4.5h-2v-7.7h2.1v4.5l3-4.5h2V19.5z"/>
			<path class="st3" d="M130.5,11.8h2.2V15l2.8-3.2h2.5l-2.8,3.2l3.2,4.5h-2.6l-2-2.9l-1,1.1v1.8h-2.2V11.8z"/>
		</g>
	</g>
	<g>
		<path class="st4" d="M34.3,24.7h0.3l2,4.2h-0.3l-0.5-1.2h-2.5L32.7,29h-0.3L34.3,24.7z M35.5,27.5l-1.1-2.4l-1.1,2.4H35.5z"/>
		<path class="st4" d="M37.4,25.9h0.3v0.7c0.3-0.4,0.7-0.8,1.3-0.8c0.7,0,1.5,0.6,1.5,1.6c0,1-0.7,1.6-1.5,1.6c-0.6,0-1-0.3-1.3-0.7
			v1.6h-0.3V25.9z M40.1,27.4c0-0.8-0.6-1.3-1.2-1.3c-0.6,0-1.2,0.5-1.2,1.3c0,0.8,0.6,1.3,1.2,1.3C39.6,28.7,40.1,28.3,40.1,27.4z"
			/>
		<path class="st4" d="M41.1,27.4c0-0.9,0.6-1.6,1.5-1.6c0.9,0,1.4,0.7,1.4,1.6c0,0.1,0,0.1,0,0.1h-2.5c0.1,0.8,0.6,1.2,1.2,1.2
			c0.5,0,0.8-0.2,1-0.5l0.2,0.2c-0.3,0.3-0.7,0.6-1.3,0.6C41.8,29,41.1,28.4,41.1,27.4z M43.7,27.3c0-0.6-0.4-1.2-1.1-1.2
			c-0.6,0-1.1,0.5-1.1,1.2H43.7z"/>
		<path class="st4" d="M44.8,25.9h0.3v1.4h2v-1.4h0.3V29h-0.3v-1.4h-2V29h-0.3V25.9z"/>
		<path class="st4" d="M48.1,28.7h0.4c0.3-0.4,0.4-1.1,0.4-2.1v-0.6H51v2.8h0.5l-0.1,1.1h-0.2V29h-2.8l-0.1,0.9h-0.2V28.7z
			 M50.7,28.7v-2.5h-1.5v0.6c0,0.8-0.2,1.6-0.4,2H50.7z"/>
		<path class="st4" d="M52,28.1c0-0.6,0.5-1,1.3-1c0.4,0,0.7,0.1,1,0.1v-0.1c0-0.6-0.4-0.9-1-0.9c-0.4,0-0.7,0.1-1,0.2l-0.1-0.3
			c0.3-0.2,0.7-0.3,1.1-0.3c0.4,0,0.7,0.1,1,0.3c0.2,0.2,0.3,0.5,0.3,0.9V29h-0.3v-0.5c-0.2,0.3-0.6,0.6-1.2,0.6
			C52.5,29,52,28.7,52,28.1z M54.3,27.8v-0.3c-0.3-0.1-0.6-0.1-1-0.1c-0.6,0-1,0.3-1,0.7c0,0.4,0.4,0.7,0.9,0.7
			C53.8,28.7,54.3,28.4,54.3,27.8z"/>
		<path class="st4" d="M57.2,28.1c0-0.6,0.5-1,1.3-1c0.4,0,0.7,0.1,1,0.1v-0.1c0-0.6-0.4-0.9-1-0.9c-0.4,0-0.7,0.1-1,0.2l-0.1-0.3
			c0.3-0.2,0.7-0.3,1.1-0.3c0.4,0,0.7,0.1,1,0.3c0.2,0.2,0.3,0.5,0.3,0.9V29h-0.3v-0.5C59.4,28.7,59,29,58.4,29
			C57.8,29,57.2,28.7,57.2,28.1z M59.6,27.8v-0.3c-0.3-0.1-0.6-0.1-1-0.1c-0.6,0-1,0.3-1,0.7c0,0.4,0.4,0.7,0.9,0.7
			C59,28.7,59.6,28.4,59.6,27.8z"/>
		<path class="st4" d="M61.7,26.2h-1.1v-0.3h2.6v0.3H62V29h-0.3V26.2z"/>
		<path class="st4" d="M64.6,26.2h-1.1v-0.3h2.6v0.3h-1.1V29h-0.3V26.2z"/>
		<path class="st4" d="M66.8,25.9h0.3v0.7c0.3-0.4,0.7-0.8,1.3-0.8c0.7,0,1.5,0.6,1.5,1.6c0,1-0.7,1.6-1.5,1.6c-0.6,0-1-0.3-1.3-0.7
			v1.6h-0.3V25.9z M69.5,27.4c0-0.8-0.6-1.3-1.2-1.3c-0.6,0-1.2,0.5-1.2,1.3c0,0.8,0.6,1.3,1.2,1.3C69,28.7,69.5,28.3,69.5,27.4z"/>
		<path class="st4" d="M70.5,28.1c0-0.6,0.5-1,1.3-1c0.4,0,0.7,0.1,1,0.1v-0.1c0-0.6-0.4-0.9-1-0.9c-0.4,0-0.7,0.1-1,0.2l-0.1-0.3
			c0.3-0.2,0.7-0.3,1.1-0.3c0.4,0,0.7,0.1,1,0.3c0.2,0.2,0.3,0.5,0.3,0.9V29h-0.3v-0.5c-0.2,0.3-0.6,0.6-1.2,0.6
			C71.1,29,70.5,28.7,70.5,28.1z M72.9,27.8v-0.3c-0.3-0.1-0.6-0.1-1-0.1c-0.6,0-1,0.3-1,0.7c0,0.4,0.4,0.7,0.9,0.7
			C72.3,28.7,72.9,28.4,72.9,27.8z"/>
		<path class="st4" d="M74.2,25.9h0.3v2l1.9-2h0.4l-1.3,1.4l1.4,1.7h-0.4l-1.2-1.5l-0.7,0.8V29h-0.3V25.9z"/>
		<path class="st4" d="M80.3,29h-2.7v-3.1h0.3v2.8h2v-2.8h0.3v2.8h0.5l-0.1,1.1h-0.2V29z"/>
		<path class="st4" d="M81.3,25.9h0.3v2.7l2.1-2.7H84V29h-0.3v-2.7L81.6,29h-0.3V25.9z"/>
		<path class="st4" d="M84.9,27.4c0-0.9,0.7-1.6,1.6-1.6c0.9,0,1.6,0.7,1.6,1.6c0,0.9-0.7,1.6-1.6,1.6C85.6,29,84.9,28.3,84.9,27.4z
			 M87.7,27.4c0-0.7-0.6-1.3-1.3-1.3s-1.2,0.6-1.2,1.3c0,0.7,0.6,1.3,1.3,1.3C87.1,28.7,87.7,28.2,87.7,27.4z"/>
		<path class="st4" d="M88.9,25.9h0.3v1.4h2v-1.4h0.3V29h-0.3v-1.4h-2V29h-0.3V25.9z"/>
		<path class="st4" d="M92.5,27.4c0-0.9,0.7-1.6,1.6-1.6c0.9,0,1.6,0.7,1.6,1.6c0,0.9-0.7,1.6-1.6,1.6C93.1,29,92.5,28.3,92.5,27.4z
			 M95.3,27.4c0-0.7-0.6-1.3-1.3-1.3s-1.2,0.6-1.2,1.3c0,0.7,0.6,1.3,1.3,1.3C94.7,28.7,95.3,28.2,95.3,27.4z"/>
		<path class="st4" d="M96.5,25.9h1.4c0.6,0,1,0.3,1,0.8c0,0.4-0.3,0.6-0.5,0.7c0.4,0.1,0.7,0.3,0.7,0.8c0,0.5-0.4,0.8-1.1,0.8h-1.5
			V25.9z M97.9,27.3c0.4,0,0.7-0.2,0.7-0.6c0-0.3-0.3-0.5-0.7-0.5h-1.1v1.1H97.9z M97.9,28.7c0.5,0,0.8-0.2,0.8-0.6
			c0-0.4-0.3-0.6-0.9-0.6h-1.1v1.2H97.9z"/>
		<path class="st4" d="M102.2,24.2h0.3l-2.8,5.6h-0.3L102.2,24.2z"/>
		<path class="st4" d="M104.2,25h-1.5v-0.3h3.2V25h-1.5V29h-0.3V25z"/>
		<path class="st4" d="M106.3,25.9h0.3v2.7l2.1-2.7h0.3V29h-0.3v-2.7l-2.1,2.7h-0.3V25.9z"/>
		<path class="st4" d="M110.1,25.9h0.3l1.2,1.8l1.2-1.8h0.3V29h-0.3v-2.5l-1.2,1.7l-1.2-1.7V29h-0.3V25.9z"/>
		<path class="st4" d="M114.1,27.3c0-1,0.1-2,1.1-2.2l1.7-0.4l0.1,0.3l-1.7,0.4c-0.7,0.2-0.9,0.5-0.9,1.2c0.3-0.4,0.7-0.7,1.3-0.7
			c0.8,0,1.5,0.7,1.5,1.6c0,0.9-0.7,1.6-1.5,1.6C114.7,29,114.1,28.4,114.1,27.3z M116.8,27.5c0-0.7-0.5-1.3-1.2-1.3
			c-0.7,0-1.2,0.6-1.2,1.3c0,0.7,0.5,1.3,1.2,1.3C116.3,28.7,116.8,28.2,116.8,27.5z"/>
		<path class="st4" d="M118.1,25.9h0.3v2.7l2.1-2.7h0.3V29h-0.3v-2.7l-2.1,2.7h-0.3V25.9z"/>
		<path class="st4" d="M121.3,29l0.1-0.3c0,0,0.2,0,0.2,0c0.4,0,0.7-0.2,0.7-2.7v-0.2h2.1V29h-0.3v-2.8h-1.5v0.1
			c0,2.5-0.4,2.8-0.9,2.8C121.5,29,121.4,29,121.3,29z"/>
		<path class="st4" d="M125,28.7h0.4c0.3-0.4,0.5-1.1,0.5-2.1v-0.6h2.1v2.8h0.5l-0.1,1.1h-0.2V29h-2.8l-0.1,0.9H125V28.7z
			 M127.6,28.7v-2.5h-1.5v0.6c0,0.8-0.2,1.6-0.4,2H127.6z"/>
		<path class="st4" d="M129.2,25.9h0.3v2.7l2.1-2.7h0.3V29h-0.3v-2.7l-2.1,2.7h-0.3V25.9z"/>
		<path class="st4" d="M132.9,25.9h0.3v1.4h2v-1.4h0.3V29h-0.3v-1.4h-2V29h-0.3V25.9z"/>
		<path class="st4" d="M136.7,25.9h2v0.3H137V29h-0.3V25.9z"/>
	</g>
</g>
</svg>
