<?xml version="1.0" encoding="utf-8"?>
<!-- Generator: Adobe Illustrator 21.1.0, SVG Export Plug-In . SVG Version: 6.00 Build 0)  -->
<svg version="1.1" id="Слой_1" xmlns="http://www.w3.org/2000/svg" xmlns:xlink="http://www.w3.org/1999/xlink" x="0px" y="0px"
	 viewBox="0 0 100 100" style="enable-background:new 0 0 100 100;" xml:space="preserve">
<style type="text/css">
	.st0{fill:#28264C;}
</style>
<path class="st0" d="M89.7,60.7c-3.5-0.4-6.9-1.1-10.3-2.1c-4.2-1.3-8.7-0.2-11.7,2.9l-6.4,6.4C49.1,61.2,38.9,51,32.2,38.8l6.4-6.4
	c3.1-3.1,4.2-7.6,2.9-11.7c-1-3.3-1.7-6.8-2.1-10.3C38.7,4.5,33.7,0,27.7,0H11.9C8.6,0,5.5,1.4,3.3,3.9c-2,2.2-3.1,5-3.1,7.9
	c0,0.4,0,0.7,0,1.1c1,11.3,4,22.2,8.9,32.4C13.9,55.2,20.2,64.2,28,72c7.8,7.8,16.8,14.2,26.7,18.9c10.2,4.9,21.1,7.9,32.4,8.9
	c3.3,0.3,6.6-0.8,9-3c2.4-2.2,3.8-5.4,3.8-8.7V72.4C100,66.4,95.6,61.4,89.7,60.7z"/>
</svg>
